<?xml version="1.0" encoding="iso-8859-1"?>
<!-- Generator: Adobe Illustrator 19.0.0, SVG Export Plug-In . SVG Version: 6.00 Build 0)  -->
<svg version="1.1" id="Capa_1" xmlns="http://www.w3.org/2000/svg" xmlns:xlink="http://www.w3.org/1999/xlink" x="0px" y="0px"
	 viewBox="0 0 512 512" style="enable-background:new 0 0 512 512;" xml:space="preserve">
<g>
	<g>
		<path d="M163.899,226.002c0-4.459,1-8.666,1.721-12.946c-5.46-1.245-11.021-2.054-16.721-2.054h-15v15
			c0,38.251,28.896,69.547,65.941,74.082C182.287,282.364,163.899,256.718,163.899,226.002z"/>
	</g>
</g>
<g>
	<g>
		<path d="M328.897,211.003c-5.7,0-11.261,0.809-16.721,2.054c0.721,4.279,1.721,8.487,1.721,12.946
			c0,30.716-18.387,56.361-35.942,74.082c37.046-4.536,65.941-35.833,65.941-74.082v-15H328.897z"/>
	</g>
</g>
<g>
	<g>
		<path d="M238.898,154.797c-15.029,12.173-44.999,40.327-44.999,71.205c0,30.587,30.278,57.392,45.028,68.642
			c14.795-11.191,44.971-37.793,44.971-68.642C283.897,195.124,253.927,166.97,238.898,154.797z"/>
	</g>
</g>
<g>
	<g>
		<path d="M447.944,190.861C436.87,74.985,331.305-15.152,208.605,2.13C119.88,14.566,47.313,85.702,32.123,173.694
			c-11.763,68.158,8.848,135.188,56.571,183.924c19.482,19.878,30.205,45.951,30.205,73.417V512h209.998v-60.999h89.999V331.002
			h64.218C482.392,328.125,449.988,199.005,447.944,190.861z M298.897,121.004h30v30h-30V121.004z M223.898,61.005h30v30h-30V61.005
			z M148.899,121.004h30v30h-30V121.004z M373.896,226.003c0,57.89-47.108,104.999-104.999,104.999c-3.159,0-57.138,0-59.999,0
			c-57.89,0-104.999-47.108-104.999-104.999v-44.999h44.999c8.879,0,17.494,1.487,25.953,3.649
			c14.588-28.226,38.146-49.035,64.046-66.724c25.909,17.695,49.461,38.507,64.046,66.724c8.459-2.162,17.075-3.649,25.953-3.649
			h44.999V226.003z M447.849,190.483C447.84,190.45,447.84,190.449,447.849,190.483L447.849,190.483z"/>
	</g>
</g>
<g>
</g>
<g>
</g>
<g>
</g>
<g>
</g>
<g>
</g>
<g>
</g>
<g>
</g>
<g>
</g>
<g>
</g>
<g>
</g>
<g>
</g>
<g>
</g>
<g>
</g>
<g>
</g>
<g>
</g>
</svg>
